solid OpenSCAD_Model
  facet normal 0 1 -0
    outer loop
      vertex 11 -13 2
      vertex -5 -13 55
      vertex 11 -13 55
    endloop
  endfacet
  facet normal 0 1 0
    outer loop
      vertex -5 -13 55
      vertex 11 -13 2
      vertex -5 -13 2
    endloop
  endfacet
  facet normal 0 1 -0
    outer loop
      vertex -7.1 -13 2
      vertex -8 -13 55
      vertex -7.1 -13 55
    endloop
  endfacet
  facet normal 0 1 0
    outer loop
      vertex -8 -13 55
      vertex -7.1 -13 2
      vertex -8 -13 2
    endloop
  endfacet
  facet normal 0 -1 0
    outer loop
      vertex -5 11.3 2
      vertex 11 11.3 55
      vertex -5 11.3 55
    endloop
  endfacet
  facet normal 0 -1 -0
    outer loop
      vertex 11 11.3 55
      vertex -5 11.3 2
      vertex 11 11.3 2
    endloop
  endfacet
  facet normal 0 -1 0
    outer loop
      vertex -8 11.3 2
      vertex -7.1 11.3 55
      vertex -8 11.3 55
    endloop
  endfacet
  facet normal 0 -1 -0
    outer loop
      vertex -7.1 11.3 55
      vertex -8 11.3 2
      vertex -7.1 11.3 2
    endloop
  endfacet
  facet normal 0 0 1
    outer loop
      vertex 11 11.3 2
      vertex 6 4.15 2
      vertex 11 4.15 2
    endloop
  endfacet
  facet normal 0 0 1
    outer loop
      vertex 6 4.15 2
      vertex -5 11.3 2
      vertex 6 -5.85 2
    endloop
  endfacet
  facet normal -0 0 1
    outer loop
      vertex -5 11.3 2
      vertex 6 4.15 2
      vertex 11 11.3 2
    endloop
  endfacet
  facet normal -0 0 1
    outer loop
      vertex 6 -5.85 2
      vertex 11 -13 2
      vertex 11 -5.85 2
    endloop
  endfacet
  facet normal 0 0 1
    outer loop
      vertex 6 -5.85 2
      vertex -5 -13 2
      vertex 11 -13 2
    endloop
  endfacet
  facet normal 0 0 1
    outer loop
      vertex -5 -13 2
      vertex 6 -5.85 2
      vertex -5 11.3 2
    endloop
  endfacet
  facet normal -0 0 1
    outer loop
      vertex -8 11.3 2
      vertex -7.1 -13 2
      vertex -7.1 11.3 2
    endloop
  endfacet
  facet normal 0 0 1
    outer loop
      vertex -7.1 -13 2
      vertex -8 11.3 2
      vertex -8 -13 2
    endloop
  endfacet
  facet normal -1 0 0
    outer loop
      vertex 11 4.15 0
      vertex 11 -5.85 0
      vertex 11 4.15 2
    endloop
  endfacet
  facet normal -1 0 0
    outer loop
      vertex 11 4.15 2
      vertex 11 11.3 55
      vertex 11 11.3 2
    endloop
  endfacet
  facet normal -1 0 0
    outer loop
      vertex 11 -5.85 2
      vertex 11 4.15 2
      vertex 11 -5.85 0
    endloop
  endfacet
  facet normal -1 0 0
    outer loop
      vertex 11 4.15 2
      vertex 11 -5.85 2
      vertex 11 11.3 55
    endloop
  endfacet
  facet normal -1 0 0
    outer loop
      vertex 11 -13 55
      vertex 11 -5.85 2
      vertex 11 -13 2
    endloop
  endfacet
  facet normal -1 0 0
    outer loop
      vertex 11 -5.85 2
      vertex 11 -13 55
      vertex 11 11.3 55
    endloop
  endfacet
  facet normal 0 1 -0
    outer loop
      vertex -5 -13.6 1.4
      vertex -7.1 -13.6 55
      vertex -5 -13.6 55
    endloop
  endfacet
  facet normal 0 1 0
    outer loop
      vertex -7.1 -13.6 55
      vertex -5 -13.6 1.4
      vertex -7.1 -13.6 1.4
    endloop
  endfacet
  facet normal 0 -1 0
    outer loop
      vertex -7.1 11.9 1.4
      vertex -5 11.9 55
      vertex -7.1 11.9 55
    endloop
  endfacet
  facet normal 0 -1 -0
    outer loop
      vertex -5 11.9 55
      vertex -7.1 11.9 1.4
      vertex -5 11.9 1.4
    endloop
  endfacet
  facet normal 1 0 0
    outer loop
      vertex -7.1 -13 55
      vertex -7.1 -13.6 55
      vertex -7.1 -13 2
    endloop
  endfacet
  facet normal 1 0 0
    outer loop
      vertex -7.1 11.3 2
      vertex -7.1 11.9 55
      vertex -7.1 11.3 55
    endloop
  endfacet
  facet normal 1 0 0
    outer loop
      vertex -7.1 11.9 55
      vertex -7.1 11.3 2
      vertex -7.1 11.9 1.4
    endloop
  endfacet
  facet normal 1 -0 0
    outer loop
      vertex -7.1 -13 2
      vertex -7.1 11.9 1.4
      vertex -7.1 11.3 2
    endloop
  endfacet
  facet normal 1 0 0
    outer loop
      vertex -7.1 -13 2
      vertex -7.1 -13.6 1.4
      vertex -7.1 11.9 1.4
    endloop
  endfacet
  facet normal 1 0 0
    outer loop
      vertex -7.1 -13.6 1.4
      vertex -7.1 -13 2
      vertex -7.1 -13.6 55
    endloop
  endfacet
  facet normal -0 0 1
    outer loop
      vertex -7.1 11.9 1.4
      vertex -5 -13.6 1.4
      vertex -5 11.9 1.4
    endloop
  endfacet
  facet normal 0 0 1
    outer loop
      vertex -5 -13.6 1.4
      vertex -7.1 11.9 1.4
      vertex -7.1 -13.6 1.4
    endloop
  endfacet
  facet normal -1 0 0
    outer loop
      vertex -5 11.9 1.4
      vertex -5 11.3 2
      vertex -5 11.9 55
    endloop
  endfacet
  facet normal -1 0 0
    outer loop
      vertex -5 11.9 1.4
      vertex -5 -13 2
      vertex -5 11.3 2
    endloop
  endfacet
  facet normal -1 0 0
    outer loop
      vertex -5 -13.6 1.4
      vertex -5 -13 2
      vertex -5 11.9 1.4
    endloop
  endfacet
  facet normal -1 0 0
    outer loop
      vertex -5 -13.6 55
      vertex -5 -13 2
      vertex -5 -13.6 1.4
    endloop
  endfacet
  facet normal -1 0 0
    outer loop
      vertex -5 -13 2
      vertex -5 -13.6 55
      vertex -5 -13 55
    endloop
  endfacet
  facet normal -1 -0 0
    outer loop
      vertex -5 11.9 55
      vertex -5 11.3 2
      vertex -5 11.3 55
    endloop
  endfacet
  facet normal 0 1 -0
    outer loop
      vertex 11 -5.85 0
      vertex 6 -5.85 2
      vertex 11 -5.85 2
    endloop
  endfacet
  facet normal 0 1 0
    outer loop
      vertex 6 -5.85 2
      vertex 11 -5.85 0
      vertex 6 -5.85 0
    endloop
  endfacet
  facet normal 0 -1 0
    outer loop
      vertex 6 4.15 0
      vertex 11 4.15 2
      vertex 6 4.15 2
    endloop
  endfacet
  facet normal 0 -1 -0
    outer loop
      vertex 11 4.15 2
      vertex 6 4.15 0
      vertex 11 4.15 0
    endloop
  endfacet
  facet normal 1 -0 0
    outer loop
      vertex 6 -5.85 2
      vertex 6 4.15 0
      vertex 6 4.15 2
    endloop
  endfacet
  facet normal 1 0 0
    outer loop
      vertex 6 4.15 0
      vertex 6 -5.85 2
      vertex 6 -5.85 0
    endloop
  endfacet
  facet normal 0 -1 0
    outer loop
      vertex -8 -15 0
      vertex 13 -15 55
      vertex -8 -15 55
    endloop
  endfacet
  facet normal 0 -1 -0
    outer loop
      vertex 13 -15 55
      vertex -8 -15 0
      vertex 13 -15 0
    endloop
  endfacet
  facet normal 0 0 1
    outer loop
      vertex -7.1 -13 55
      vertex -8 -13 55
      vertex -7.1 -13.6 55
    endloop
  endfacet
  facet normal 0 0 1
    outer loop
      vertex 13 13.3 55
      vertex 11 11.3 55
      vertex 13 -15 55
    endloop
  endfacet
  facet normal 0 0 1
    outer loop
      vertex 13 13.3 55
      vertex -5 11.9 55
      vertex 11 11.3 55
    endloop
  endfacet
  facet normal -0 0 1
    outer loop
      vertex -8 13.3 55
      vertex -5 11.9 55
      vertex 13 13.3 55
    endloop
  endfacet
  facet normal 0 0 1
    outer loop
      vertex -5 11.9 55
      vertex -8 13.3 55
      vertex -7.1 11.9 55
    endloop
  endfacet
  facet normal 0 0 1
    outer loop
      vertex -8 11.3 55
      vertex -7.1 11.9 55
      vertex -8 13.3 55
    endloop
  endfacet
  facet normal 0 0 1
    outer loop
      vertex -7.1 11.9 55
      vertex -8 11.3 55
      vertex -7.1 11.3 55
    endloop
  endfacet
  facet normal -0 0 1
    outer loop
      vertex 11 -13 55
      vertex 13 -15 55
      vertex 11 11.3 55
    endloop
  endfacet
  facet normal 0 0 1
    outer loop
      vertex -5 -13.6 55
      vertex 11 -13 55
      vertex -5 -13 55
    endloop
  endfacet
  facet normal 0 0 1
    outer loop
      vertex 11 -13 55
      vertex -5 -13.6 55
      vertex 13 -15 55
    endloop
  endfacet
  facet normal 0 0 1
    outer loop
      vertex -8 -15 55
      vertex -5 -13.6 55
      vertex -7.1 -13.6 55
    endloop
  endfacet
  facet normal 0 0 1
    outer loop
      vertex -5 -13.6 55
      vertex -8 -15 55
      vertex 13 -15 55
    endloop
  endfacet
  facet normal 0 0 1
    outer loop
      vertex -8 -15 55
      vertex -7.1 -13.6 55
      vertex -8 -13 55
    endloop
  endfacet
  facet normal 0 0 1
    outer loop
      vertex 11 11.3 55
      vertex -5 11.9 55
      vertex -5 11.3 55
    endloop
  endfacet
  facet normal 1 -0 0
    outer loop
      vertex 13 -15 55
      vertex 13 13.3 0
      vertex 13 13.3 55
    endloop
  endfacet
  facet normal 1 0 0
    outer loop
      vertex 13 13.3 0
      vertex 13 -15 55
      vertex 13 -15 0
    endloop
  endfacet
  facet normal -1 0 0
    outer loop
      vertex -8 13.3 0
      vertex -8 11.3 2
      vertex -8 13.3 55
    endloop
  endfacet
  facet normal -1 0 0
    outer loop
      vertex -8 13.3 0
      vertex -8 -13 2
      vertex -8 11.3 2
    endloop
  endfacet
  facet normal -1 0 0
    outer loop
      vertex -8 -15 0
      vertex -8 -13 2
      vertex -8 13.3 0
    endloop
  endfacet
  facet normal -1 0 0
    outer loop
      vertex -8 -15 55
      vertex -8 -13 2
      vertex -8 -15 0
    endloop
  endfacet
  facet normal -1 0 0
    outer loop
      vertex -8 -13 2
      vertex -8 -15 55
      vertex -8 -13 55
    endloop
  endfacet
  facet normal -1 -0 0
    outer loop
      vertex -8 13.3 55
      vertex -8 11.3 2
      vertex -8 11.3 55
    endloop
  endfacet
  facet normal 0 0 -1
    outer loop
      vertex 13 -15 0
      vertex 11 -5.85 0
      vertex 13 13.3 0
    endloop
  endfacet
  facet normal 0 0 -1
    outer loop
      vertex 13 -15 0
      vertex 6 -5.85 0
      vertex 11 -5.85 0
    endloop
  endfacet
  facet normal -0 0 -1
    outer loop
      vertex 6 -5.85 0
      vertex -8 -15 0
      vertex 6 4.15 0
    endloop
  endfacet
  facet normal 0 0 -1
    outer loop
      vertex -8 -15 0
      vertex 6 -5.85 0
      vertex 13 -15 0
    endloop
  endfacet
  facet normal 0 0 -1
    outer loop
      vertex 11 4.15 0
      vertex 13 13.3 0
      vertex 11 -5.85 0
    endloop
  endfacet
  facet normal 0 0 -1
    outer loop
      vertex 6 4.15 0
      vertex 13 13.3 0
      vertex 11 4.15 0
    endloop
  endfacet
  facet normal 0 0 -1
    outer loop
      vertex 6 4.15 0
      vertex -8 13.3 0
      vertex 13 13.3 0
    endloop
  endfacet
  facet normal 0 0 -1
    outer loop
      vertex -8 13.3 0
      vertex 6 4.15 0
      vertex -8 -15 0
    endloop
  endfacet
  facet normal 0 1 -0
    outer loop
      vertex 13 13.3 0
      vertex -8 13.3 55
      vertex 13 13.3 55
    endloop
  endfacet
  facet normal 0 1 0
    outer loop
      vertex -8 13.3 55
      vertex 13 13.3 0
      vertex -8 13.3 0
    endloop
  endfacet
  facet normal -0 0 1
    outer loop
      vertex 15 15 2
      vertex 36 -13.3 2
      vertex 36 15 2
    endloop
  endfacet
  facet normal 0 0 1
    outer loop
      vertex 36 -13.3 2
      vertex 15 15 2
      vertex 15 -13.3 2
    endloop
  endfacet
  facet normal 0 1 -0
    outer loop
      vertex 36 15 0
      vertex 15 15 2
      vertex 36 15 2
    endloop
  endfacet
  facet normal 0 1 0
    outer loop
      vertex 15 15 2
      vertex 36 15 0
      vertex 15 15 0
    endloop
  endfacet
  facet normal 0 -1 0
    outer loop
      vertex 15 -13.3 0
      vertex 36 -13.3 2
      vertex 15 -13.3 2
    endloop
  endfacet
  facet normal 0 -1 -0
    outer loop
      vertex 36 -13.3 2
      vertex 15 -13.3 0
      vertex 36 -13.3 0
    endloop
  endfacet
  facet normal -1 0 0
    outer loop
      vertex 15 -13.3 0
      vertex 15 15 2
      vertex 15 15 0
    endloop
  endfacet
  facet normal -1 -0 0
    outer loop
      vertex 15 15 2
      vertex 15 -13.3 0
      vertex 15 -13.3 2
    endloop
  endfacet
  facet normal 0 0 -1
    outer loop
      vertex 15 -13.3 0
      vertex 36 15 0
      vertex 36 -13.3 0
    endloop
  endfacet
  facet normal -0 0 -1
    outer loop
      vertex 36 15 0
      vertex 15 -13.3 0
      vertex 15 15 0
    endloop
  endfacet
  facet normal 1 -0 0
    outer loop
      vertex 36 -13.3 2
      vertex 36 15 0
      vertex 36 15 2
    endloop
  endfacet
  facet normal 1 0 0
    outer loop
      vertex 36 15 0
      vertex 36 -13.3 2
      vertex 36 -13.3 0
    endloop
  endfacet
endsolid OpenSCAD_Model
